# xmcd
#
# Track frame offsets: 
#        150
#        15805
#        37870
#        54777
#        67610
#        85492
#        100535
#        116105
#        133100
#        148402
#
# Disc length: 2194 seconds
#
# Revision: 3
# Processed by: cddbd v1.4PL0 Copyright (c) Steve Scherf et al.
# Submitted via: ExactAudioCopy v0.90b3
#
DISCID=7608900a
DTITLE=Conway Twitty - Greatest Hits Volume III
DYEAR=1990
DGENRE=Country
TTITLE0=Fit To Be Tied Down
TTITLE1=That's My Job
TTITLE2=She's Got A Single Thing In Mind
TTITLE3=Who's Gonna Know
TTITLE4=House On Old Lonesome Road
TTITLE5=Saturday Night Special
TTITLE6=Goodbye Time
TTITLE7=Julia
TTITLE8=I Wish I Was Still In Your Dreams
TTITLE9=I Want To Know You Before We Make Love
EXTD=YEAR: 1990 ID3G: 2
EXTT0=
EXTT1=
EXTT2=
EXTT3=
EXTT4=
EXTT5=
EXTT6=
EXTT7=
EXTT8=
EXTT9=
PLAYORDER=
